<?xml version="1.0" encoding="utf-8"?>
<!-- Generator: Adobe Illustrator 24.0.2, SVG Export Plug-In . SVG Version: 6.00 Build 0)  -->
<svg version="1.1" id="Слой_1" xmlns="http://www.w3.org/2000/svg" xmlns:xlink="http://www.w3.org/1999/xlink" x="0px" y="0px"
	 viewBox="0 0 427.6 191.5" style="enable-background:new 0 0 427.6 191.5;" xml:space="preserve">
<style type="text/css">
	.st0{fill:#FFFFFF;}
</style>
<g>
	<g>
		<path class="st0" d="M293.7,55.5c-1-0.7-2.1-1.3-3.1-2c-9.9-6.4-19.7-12.8-29.7-19.1c-2.4-1.5-3.5-3.1-3.3-6c0.2-3.3,0-6.6,0-10.4
			h0c0,3.8,0.2,7.1-0.1,10.4c-0.2,2.9,0.9,4.5,3.3,6c9.9,6.3,19.8,12.7,29.6,19.1C291.7,54.1,292.7,54.8,293.7,55.5z M279.4,88.5
			c11.7-8.3,23.5-16.5,35.2-24.9C302.8,72,291.1,80.3,279.4,88.5z M257.7,99.4c0-3.3-0.1-6.3,0.2-9.3c0-0.1,0-0.1,0-0.2
			c0,0.1,0,0.1,0,0.2C257.6,93.1,257.7,96.1,257.7,99.4z M257.8,103.4C257.8,103.4,257.8,103.4,257.8,103.4c0-1.4,0-2.7,0-4
			C257.8,100.7,257.8,102,257.8,103.4z M235.5,30.3c3.6-10.1,7.3-20.1,10.9-30.3h0C242.7,10.1,239.1,20.2,235.5,30.3z M176.8,103.6
			L176.8,103.6c-1-0.7-2-1.3-2.8-1.8C174.8,102.3,175.7,102.9,176.8,103.6z M174.1,33.8c0.3-0.3,0.7-0.6,1-0.9
			C174.8,33.2,174.4,33.5,174.1,33.8z M140.3,55.7c11.1-7.2,22.3-14.3,33.3-21.6c0.2-0.1,0.3-0.2,0.5-0.4c-0.2,0.1-0.3,0.3-0.5,0.4
			C162.5,41.4,151.4,48.5,140.3,55.7c-1.5,1-3,2-4.9,3.3l0,0C137.3,57.8,138.7,56.7,140.3,55.7z M121.9,65.1c-1-0.7-2-1.4-3.1-2
			C119.8,63.8,120.9,64.4,121.9,65.1c16.6,11.7,33.3,23.5,49.9,35.2c0.3,0.3,0.7,0.5,1.1,0.7c-0.4-0.3-0.7-0.5-1.1-0.7
			C155.2,88.6,138.5,76.8,121.9,65.1z M117.7,62.5c0.3,0.2,0.7,0.4,1,0.6C118.4,62.9,118.1,62.7,117.7,62.5L117.7,62.5z"/>
		<path d="M176.8,93.2c-0.3,3.1-0.1,6.3-0.1,10.4v0c-1-0.7-2-1.3-2.8-1.8c-0.4-0.3-0.8-0.5-1.1-0.8c-0.4-0.2-0.7-0.5-1.1-0.7
			c-16.6-11.7-33.3-23.5-49.9-35.2c-1-0.7-2-1.3-3.1-2c0,0,0,0,0,0c-0.4-0.2-0.7-0.4-1-0.6v-7c9.7-6.3,19.4-12.5,29.2-18.9
			c7.4-4.8,14.8-9.5,22.3-14.4c2.5-1.6,5-3.2,7.5-4.9c0,4.9,0.3,8.9-0.1,12.8c0,0.2-0.1,0.3-0.1,0.5c0,0.1-0.1,0.2-0.1,0.3
			c-0.3,0.7-0.7,1.3-1.3,1.9c-0.3,0.3-0.7,0.6-1,0.9c-0.2,0.1-0.3,0.3-0.5,0.4c-11,7.3-22.2,14.4-33.3,21.6c-1.5,1-3,2-4.9,3.3
			c1.5,1.2,2.7,2.2,4,3.1c11.2,7.9,22.4,15.9,33.7,23.7c0.6,0.4,1.2,0.9,1.7,1.3c0.8,0.8,1.4,1.7,1.7,2.7
			C176.8,90.9,176.9,91.9,176.8,93.2z"/>
		<path d="M246.4,0c-3.6,10.1-7.3,20.2-10.9,30.3c-10.9,30.2-21.7,60.4-32.7,90.7h-13.1c7.3-20.3,14.6-40.4,21.8-60.6l0,0
			c3.1-8.7,6.3-17.5,9.4-26.2c1-2.7,1.9-5.3,2.9-8c3.1-8.7,6.3-17.5,9.4-26.2H246.4z"/>
		<path d="M316.7,61c-0.4,1-1.1,2-2.2,2.7c-11.7,8.3-23.4,16.6-35.2,24.9c-6.4,4.5-12.8,9-19.2,13.6c-0.1,0-0.1,0.1-0.2,0.1
			c-0.1,0.1-0.3,0.2-0.4,0.2c0,0,0,0,0,0c-0.2,0.1-0.5,0.3-0.9,0.5c-0.2,0.1-0.5,0.3-0.8,0.4c0,0,0,0,0,0c0-1.4,0-2.7,0-4
			c0,0,0,0,0,0c-0.1-3.3-0.1-6.3,0.2-9.3c0-0.1,0-0.1,0-0.2c0-0.2,0.1-0.4,0.2-0.6c0.1-0.2,0.2-0.3,0.3-0.5c0.3-0.4,0.7-0.9,1.1-1.3
			c0.5-0.5,1.1-0.9,1.6-1.3c11.2-8,22.4-15.9,33.6-23.9c0.2-0.1,0.3-0.2,0.5-0.4c0.3-0.2,0.7-0.5,1-0.7c0.5-0.4,1-0.8,1.6-1.2
			c0.4-0.3,0.8-0.6,1.2-0.9c-1.9-1.3-3.7-2.4-5.5-3.6c-1.1-0.7-2.1-1.3-3.1-2c-9.9-6.4-19.7-12.9-29.6-19.1c-2.4-1.5-3.5-3.1-3.3-6
			c0.2-3.3,0.1-6.6,0.1-10.4h0c1.5,0.7,2.5,1.1,3.4,1.7c17.5,11.3,35.1,22.6,52.6,34C316.6,55.4,317.6,58.5,316.7,61z"/>
	</g>
</g>
<g>
	<path d="M72,174.7c0,2-0.4,3.9-1.3,5.9c-0.8,2-1.9,3.8-3.3,5.4s-2.9,2.9-4.6,3.9s-3.5,1.5-5.3,1.5H0v-7.2h3.1v-49.7H0v-7.2h56.4
		c1.8,0,3.7,0.4,5.6,1.3s3.6,2,5.1,3.5s2.7,3.3,3.7,5.4c0.9,2,1.4,4.3,1.4,6.6L72,174.7L72,174.7z M65.7,174.6V144
		c0-1.4-0.3-2.6-0.9-3.8c-0.6-1.2-1.3-2.2-2.2-3c-0.9-0.9-1.9-1.5-3-2s-2.1-0.7-3.1-0.7h-47v49.6h47.8c1,0,2-0.3,3-0.8
		c1-0.5,1.9-1.3,2.7-2.2c0.8-0.9,1.5-2,2-3.1C65.4,177,65.7,175.8,65.7,174.6z"/>
	<path d="M134.9,170.1H84.8v7.7c0,0.7,0.2,1.4,0.5,2.1s0.7,1.4,1.3,2.1c0.5,0.6,1.1,1.2,1.8,1.6c0.7,0.5,1.3,0.7,2,0.7h35v-3.6h6.4
		v10.8H90c-1.5,0-3-0.4-4.4-1.3c-1.4-0.8-2.7-1.9-3.7-3.2c-1.1-1.3-1.9-2.8-2.5-4.4s-0.9-3.3-0.9-4.9v-22.5c0-1.8,0.3-3.5,1-5.2
		s1.6-3.1,2.7-4.4s2.4-2.3,3.8-3.1c1.5-0.8,3-1.2,4.5-1.2h32.2c1.4,0,2.8,0.4,4.3,1.1c1.4,0.7,2.7,1.7,3.9,2.9
		c1.2,1.2,2.1,2.6,2.9,4.2c0.7,1.6,1.1,3.3,1.1,5.1L134.9,170.1L134.9,170.1z M128.5,162.8v-7.9c0-0.8-0.2-1.5-0.6-2.3
		c-0.4-0.8-0.9-1.4-1.5-2c-0.6-0.6-1.2-1-1.9-1.4c-0.7-0.4-1.3-0.5-1.8-0.5H90.5c-0.7,0-1.4,0.2-2.1,0.6c-0.7,0.4-1.3,0.9-1.8,1.6
		s-1,1.3-1.3,2.1s-0.5,1.5-0.5,2.2v7.7H128.5z"/>
	<path d="M197.1,148.7h-3.5l-21.3,42.8h-7l-21.3-42.8h-3.5v-7.2h13.9v7.3h-3.1l17.5,34.9l17.5-34.9h-3v-7.3h13.9L197.1,148.7
		L197.1,148.7z"/>
	<path d="M302.1,173.5c0,2.1-0.4,4.2-1.1,6.3c-0.7,2.1-1.8,4.1-3.1,5.8s-2.9,3.1-4.7,4.2s-3.8,1.6-5.8,1.6h-54.3v-14.4h6.3v7.1h47.9
		c1.3,0,2.4-0.3,3.4-1c1-0.7,1.9-1.6,2.7-2.6s1.3-2.2,1.7-3.5s0.6-2.4,0.6-3.5c0-1.3-0.2-2.5-0.7-3.8s-1.1-2.4-1.8-3.5
		s-1.7-1.9-2.8-2.5c-1.1-0.6-2.2-0.9-3.5-0.9h-39.2c-2.1,0-4.1-0.5-5.9-1.6s-3.3-2.5-4.6-4.2s-2.3-3.6-3-5.8
		c-0.7-2.1-1.1-4.2-1.1-6.2c0-2.3,0.4-4.6,1.2-6.7c0.8-2.2,1.9-4.1,3.3-5.7c1.4-1.6,3-2.9,4.9-3.9s3.9-1.5,6.1-1.5h50.3v14.3h-6.3
		v-7h-44.4c-1.3,0-2.4,0.3-3.5,0.9c-1.1,0.6-2,1.4-2.8,2.5s-1.4,2.2-1.8,3.4c-0.4,1.3-0.7,2.5-0.7,3.8c0,1.1,0.2,2.3,0.6,3.6
		s1,2.4,1.7,3.4c0.7,1,1.6,1.9,2.6,2.6s2.2,1,3.4,1h39.1c2.1,0,4.1,0.5,6,1.5c1.8,1,3.5,2.4,4.8,4.1c1.4,1.7,2.4,3.6,3.2,5.8
		C301.7,169.2,302.1,171.3,302.1,173.5z"/>
	<path d="M364.8,177.4c0,1.7-0.3,3.4-0.9,5.1c-0.6,1.7-1.4,3.2-2.5,4.5s-2.3,2.4-3.8,3.2c-1.5,0.8-3.1,1.2-4.8,1.2h-32.5
		c-1.4,0-2.8-0.4-4.3-1.1c-1.4-0.7-2.7-1.7-3.8-2.9c-1.1-1.2-2-2.7-2.7-4.3c-0.7-1.7-1.1-3.5-1.1-5.4v-23.4c0-1.5,0.3-3,1-4.5
		c0.7-1.5,1.5-2.9,2.6-4.1s2.3-2.2,3.8-3c1.4-0.8,2.9-1.2,4.5-1.2H353c1.6,0,3.1,0.4,4.5,1.3c1.4,0.9,2.7,2,3.8,3.3s2,2.8,2.6,4.5
		s0.9,3.3,0.9,4.9L364.8,177.4L364.8,177.4z M358.5,177.5v-22c0-0.8-0.2-1.7-0.5-2.5c-0.3-0.8-0.8-1.6-1.3-2.2s-1.2-1.1-1.9-1.5
		c-0.7-0.4-1.4-0.6-2.1-0.6h-32.3c-0.7,0-1.4,0.2-2.1,0.5c-0.7,0.4-1.3,0.8-1.8,1.4c-0.5,0.6-1,1.3-1.3,2s-0.5,1.5-0.5,2.2v23.3
		c0,0.8,0.2,1.6,0.5,2.4c0.4,0.7,0.8,1.4,1.4,2c0.5,0.6,1.2,1,1.8,1.3c0.7,0.3,1.3,0.5,1.8,0.5h32.5c0.7,0,1.4-0.2,2.1-0.6
		c0.7-0.4,1.3-1,1.8-1.6c0.5-0.6,1-1.4,1.3-2.2C358.3,179,358.5,178.2,358.5,177.5z"/>
	<path d="M427.5,191.5h-44.3c-1.4,0-2.8-0.4-4.3-1.1c-1.4-0.7-2.7-1.7-3.9-2.9s-2.1-2.6-2.9-4.2s-1.1-3.3-1.1-5.1v-23.6
		c0-1.6,0.3-3.2,1-4.8c0.7-1.6,1.6-3,2.7-4.2s2.3-2.3,3.7-3c1.4-0.8,2.8-1.2,4.1-1.2h44.9v10.8h-6.3v-3.6h-38.3
		c-0.6,0-1.2,0.2-1.8,0.6c-0.7,0.4-1.2,0.9-1.8,1.5s-1,1.3-1.3,2c-0.3,0.7-0.5,1.4-0.5,2.1V178c0,0.8,0.2,1.5,0.5,2.3
		c0.4,0.7,0.8,1.4,1.4,2c0.6,0.6,1.2,1.1,1.9,1.4s1.3,0.5,2,0.5h37.9v-3.6h6.4L427.5,191.5L427.5,191.5z"/>
</g>
</svg>
